<?xml version="1.0" encoding="utf-8"?>

<!DOCTYPE svg PUBLIC "-//W3C//DTD SVG 1.1//EN" "http://www.w3.org/Graphics/SVG/1.1/DTD/svg11.dtd">
<svg version="1.1" id="Layer_1" xmlns="http://www.w3.org/2000/svg" xmlns:xlink="http://www.w3.org/1999/xlink" x="0px" y="0px"
	 viewBox="0 0 1881.0868 1638.5602" enable-background="new 0 0 1881.0868 1638.5602" xml:space="preserve">
<g>
	<g>
		<path d="M1742.0912,585.2868c-29.9087,0-59.8146-11.4094-82.6335-34.2283c-192.2029-192.2029-447.5186-298.0547-718.9142-298.0547
			S413.8335,358.8556,221.6292,551.0585c-45.6377,45.6378-119.6293,45.6378-165.2671,0s-45.6377-119.6293,0-165.2671
			C175.7746,266.379,314.9888,173.9024,470.136,110.9308c149.8333-60.8147,308.1018-91.6507,470.4074-91.6507
			s320.574,30.836,470.4089,91.6507c155.1472,62.9716,294.36,155.4482,413.7725,274.8607
			c45.6377,45.6377,45.6377,119.6307,0,165.2671C1801.9059,573.8774,1772,585.2868,1742.0912,585.2868z"/>
	</g>
	<g>
		<path d="M1501.6265,935.4893c-29.9116,0.0028-59.8118-11.4066-82.6335-34.2283
			c-127.9203-127.9203-297.8379-198.3698-478.4488-198.3698c-180.6123,0-350.5298,70.4495-478.4502,198.3698
			c-45.6378,45.6378-119.6293,45.6378-165.2671,0c-45.6377-45.6363-45.6377-119.6293,0-165.267
			c172.0645-172.0659,400.674-266.8264,643.7173-266.8264c243.0418,0,471.6528,94.7605,643.7159,266.8264
			c45.6377,45.6377,45.6377,119.6307,0,165.267C1561.444,924.077,1531.5295,935.4865,1501.6265,935.4893z"/>
	</g>
	<g>
		<path d="M1181.0082,1269.0776c-29.9087,0-59.8147-11.4094-82.6335-34.2283c-87.0272-87.0231-228.6309-87.0273-315.6625,0
			c-45.6377,45.6377-119.6293,45.6377-165.267,0c-45.6378-45.6378-45.6378-119.6294,0-165.2671
			c86.3553-86.3553,201.1002-133.9132,323.0976-133.9132c122.0002,0,236.7451,47.5579,323.099,133.9132
			c45.6377,45.6377,45.6377,119.6293,0,165.2671C1240.8229,1257.6682,1210.917,1269.0776,1181.0082,1269.0776z"/>
	</g>
	<g>
		<path d="M940.5427,1619.2802c-30.7632,0-60.8846-12.4766-82.6207-34.2397c-21.7661-21.7661-34.2411-51.8574-34.2411-82.6222
			c0-30.7646,12.4751-60.8845,34.2411-82.6506c21.7361-21.7375,51.8575-34.2112,82.6207-34.2112s60.886,12.4736,82.652,34.2112
			c21.7347,21.7347,34.2112,51.8575,34.2112,82.6506c0,30.7648-12.4766,60.8846-34.2112,82.6222
			C1001.4287,1606.8036,971.306,1619.2802,940.5427,1619.2802z"/>
	</g>
</g>
</svg>
